Coordinates
version=1
nRows=14
nColumns=36
inDegrees=yes

Units are S.I. units (second, meters, Newtons, ...)
If the header above contains a line with 'inDegrees', this indicates whether rotational values are in degrees (yes) or radians (no).

endheader
time	pelvis_tilt	pelvis_list	pelvis_rotation	pelvis_tx	pelvis_ty	pelvis_tz	hip_flexion_r	hip_adduction_r	hip_rotation_r	knee_angle_r	knee_angle_r_beta	ankle_angle_r	subtalar_angle_r	mtp_angle_r	hip_flexion_l	hip_adduction_l	hip_rotation_l	knee_angle_l	knee_angle_l_beta	ankle_angle_l	subtalar_angle_l	mtp_angle_l	lumbar_extension	lumbar_bending	lumbar_rotation	arm_flex_r	arm_add_r	arm_rot_r	elbow_flex_r	pro_sup_r	arm_flex_l	arm_add_l	arm_rot_l	elbow_flex_l	pro_sup_l
      4.35833330	      4.69554722	    -10.07449483	     85.90850802	      0.30487000	      0.90172674	      0.10898548	     17.70343127	      4.57728681	    -11.80054132	     21.19542222	      0.36992990	      4.68791502	    -27.33798029	     -7.49999987	     38.31657660	     -2.49255091	     17.13881487	      4.41905704	      0.07712710	     -8.79920824	     -0.92069347	     -7.49999987	    -13.01119140	     11.04132776	      5.20519900	     21.43481645	    -20.73292679	      2.30738000	     39.53078489	     71.83134922	     -1.55171652	     -1.00626020	     25.44958970	     31.56951084	     55.42130183
      4.36250000	      4.91918357	    -10.40422289	     86.26551032	      0.30485141	      0.90229069	      0.10877323	     18.25580859	      4.83809472	    -11.85587262	     21.33659982	      0.37239392	      4.33997319	    -28.35115401	     -7.49999987	     38.95885827	     -2.71528187	     17.01922668	      4.52495928	      0.07897544	     -8.27097084	     -1.31128911	     -7.49999987	    -12.74832283	     11.19207639	      5.39382217	     21.30618262	    -20.85935272	      2.52557336	     39.88542505	     72.00003552	     -1.11299605	     -0.97286407	     25.86403524	     31.11086516	     55.78688610
      4.36666670	      5.05907780	    -10.41883731	     86.64058879	      0.30814079	      0.90249177	      0.10380553	     18.19027516	      5.07599542	    -12.06041740	     21.35970570	      0.37279719	      4.48523674	    -28.70736756	     -7.49999987	     38.83446309	     -2.92456370	     17.03642901	      4.44515250	      0.07758255	     -7.65854647	     -1.61575556	     -7.49999987	    -12.56030966	     11.21170025	      5.35830950	     20.97469370	    -20.64758856	      2.60960378	     39.81580327	     72.05166509	     -1.02050395	     -1.18824390	     25.85705522	     31.02809939	     55.80949683
      4.37083330	      5.14311091	    -10.46620660	     87.06110394	      0.29960907	      0.90306977	      0.10469150	     18.10260300	      4.91118032	    -12.29952586	     21.19791513	      0.36997341	      4.13839182	    -28.89159967	     -7.49999987	     38.71803321	     -2.73159844	     17.00086000	      4.19973189	      0.07329915	     -7.00309913	     -2.02603292	     -7.49999987	    -12.34823093	     11.54300868	      5.22335639	     20.82744389	    -20.81448684	      2.56391992	     39.70328526	     72.11201086	     -1.00548630	     -1.00739846	     25.90585584	     30.82333900	     55.84408264
      4.37500000	      5.30971236	    -10.57891623	     87.58605727	      0.29553790	      0.90216759	      0.10936014	     18.26814320	      4.80582568	    -12.38978838	     21.07508446	      0.36782961	      3.62850896	    -29.71554720	     -7.49999987	     38.91235660	     -2.60571253	     17.50617663	      4.20616777	      0.07341148	     -6.28438728	     -2.87244821	     -7.49999987	    -12.07769902	     11.87820760	      4.98776221	     20.76447772	    -21.02800773	      2.50691987	     39.42084559	     72.51571631	     -0.40434234	     -0.57428808	     26.10216320	     29.62588556	     56.08225411
      4.37916670	      5.27708846	    -10.53781294	     87.92609075	      0.29604187	      0.90271415	      0.10940796	     18.26253892	      4.56456074	    -12.76651048	     21.00347158	      0.36657973	      3.63131136	    -30.05868007	     -7.49999987	     38.97360479	     -2.47529498	     17.70494937	      4.46892202	      0.07799740	     -5.79165794	     -3.49462360	     -7.49999987	    -12.12865369	     11.88205223	      5.01952109	     20.55984353	    -21.20169679	      2.40239952	     39.68271078	     72.01242631	     -0.01865961	     -0.39763215	     26.02709959	     29.28158516	     56.62161532
      4.38333330	      5.19471719	    -10.80629753	     88.36829988	      0.29557848	      0.89988054	      0.10960616	     18.61345054	      4.25561148	    -13.03414020	     21.15970219	      0.36930647	      3.81817722	    -30.17456491	     -7.49999987	     39.43464222	     -2.24699725	     17.91017101	      4.85134759	      0.08467199	     -5.63600043	     -4.75668372	     -7.49999987	    -11.66525845	     11.85218439	      4.74187594	     20.32737693	    -21.21493083	      2.26915221	     39.71246277	     72.04328794	      0.29883987	     -0.24071788	     26.11211822	     28.54853584	     57.27196943
      4.38750000	      5.04912575	    -10.82937347	     88.49611965	      0.29636586	      0.90352939	      0.10956629	     18.53569620	      4.05451474	    -13.15207829	     20.97980920	      0.36616675	      3.84803024	    -30.14313811	     -7.49999987	     39.59513281	     -2.21278252	     18.41500133	      5.76850854	      0.10067947	     -5.06113018	     -5.90334258	     -7.49999987	    -11.66528734	     11.65848295	      4.73597008	     19.82786936	    -21.19638009	      2.15642365	     40.17137820	     71.39546881	      0.45503677	     -0.25117784	     25.84424284	     28.55858224	     57.77279285
      4.39166670	      5.00424638	    -10.92281200	     88.74929447	      0.29617008	      0.90040703	      0.10971619	     18.27662504	      4.00706752	    -13.25717241	     20.34253754	      0.35504426	      3.85435564	    -29.80682167	     -7.49999987	     39.77347291	     -2.37366976	     18.64390790	      6.47153476	      0.11294959	     -4.62593095	     -6.66983373	     -7.49999987	    -11.22446110	     11.42903315	      4.55011148	     19.45358888	    -21.03825462	      2.22124839	     40.03263717	     71.56255033	      0.50721933	     -0.34084258	     25.85661701	     28.34963764	     57.85462563
      4.39583330	      5.11463757	    -10.87784460	     88.95505746	      0.29640777	      0.90404731	      0.10985666	     17.92583471	      4.10869116	    -13.66243294	     19.79120189	      0.34542164	      3.42557513	    -29.65945662	     -7.49999987	     39.64574087	     -2.73258740	     19.46986888	      6.90093569	      0.12044405	     -4.77663645	     -8.60522487	     -7.49999987	    -10.95834116	     11.49074521	      4.62598292	     19.26961501	    -20.65952689	      0.82840084	     39.40753456	     79.15428300	      1.05192326	     -0.08152745	     25.67303677	     26.90094956	     61.76154449
      4.40000000	      5.05968274	    -10.79409784	     89.39427775	      0.29610364	      0.90356541	      0.10995049	     17.59201427	      3.99291090	    -14.16790788	     19.29860313	      0.33682417	      3.02783612	    -29.42423191	     -7.49999987	     39.50396893	     -2.72459241	     20.01948383	      7.27552793	      0.12698192	     -4.45313288	     -9.38038273	     -7.49999987	    -10.73150223	     11.29421441	      4.57955112	     18.89511039	    -20.42152631	      0.93350812	     39.10715815	     78.96492862	      1.42177375	      0.02610114	     25.52888569	     26.32915300	     61.81974842
      4.40416670	      4.97514328	    -10.78638544	     89.67715856	      0.29616629	      0.90431540	      0.11071615	     17.47507226	      3.80546611	    -14.54743938	     19.10417374	      0.33343073	      2.59324386	    -29.09210975	     -7.49999987	     39.39994677	     -2.78610826	     20.35827650	      7.47880841	      0.13052983	     -4.55915936	    -10.19199405	     -7.49999987	    -10.51263316	     10.99352176	      4.73750298	     19.00994437	    -20.10817592	      1.29423571	     37.94781156	     78.78101685	      1.86725487	      0.07866645	     25.41732779	     25.10702064	     62.01513942
      4.40833330	      4.80474022	    -10.59802826	     90.23360575	      0.29553773	      0.90747930	      0.11128827	     17.09565200	      3.54708894	    -15.19410362	     18.83578542	      0.32874647	      2.14625680	    -28.83745815	     -7.49999987	     39.16658037	     -2.49697533	     20.64838301	      7.77086823	      0.13562724	     -4.47132714	    -10.39017492	     -7.49999987	    -10.49354504	     10.60820647	      4.78785808	     18.70983184	    -19.80761479	      1.46768613	     37.24977560	     78.55817512	      2.28851204	      0.05213060	     25.30727000	     24.54302038	     62.07933786
      4.41250000	      4.66985162	    -10.58532119	     90.54992969	      0.29217805	      0.90812400	      0.11661537	     17.22152820	      3.19557821	    -15.73059337	     18.68685846	      0.32614721	      1.69319314	    -28.63413642	     -7.49999987	     39.17231420	     -2.43923200	     20.39233521	      7.68398987	      0.13411092	     -4.51243652	    -10.56021940	     -7.49999987	    -10.51295120	     10.34809412	      4.87158007	     18.79272881	    -19.55587109	      1.55285474	     37.05148525	     78.62618304	      2.69104884	      0.06587739	     25.28886833	     24.43624138	     62.11222049
